<svg width="84" height="108" viewBox="0 0 84 108" fill="none" xmlns="http://www.w3.org/2000/svg">
<g filter="url(#filter0_d_111_90)">
<path d="M64 66C64 78.1503 54.1503 88 42 88C29.8497 88 20 78.1503 20 66C20 53.8497 29.8497 44 42 44C54.1503 44 64 53.8497 64 66Z" fill="#ED152F"/>
<path d="M41.0948 54.1314C40.8635 53.9413 40.5245 53.959 40.3167 54.1746C35.7009 58.9668 33 65.1526 33 69.0079C33 76.2187 38.7663 79 41.8592 79C46.3927 79 50.1011 74.1588 50.1011 67.2556C50.1011 64.0647 49.4425 61.9421 48.9584 60.8151C48.7232 60.2663 48.2685 60.229 47.9431 60.7308C46.8553 62.3987 46.4966 63.6512 46.4966 63.6512C46.6416 63.6061 46.0654 60.3388 44.7189 58.2239C43.3959 56.1463 41.8671 54.7665 41.0948 54.1314Z" fill="white"/>
<path d="M41.2732 61.5515C41.1262 61.43 40.9086 61.4417 40.7753 61.5789C37.8275 64.6405 36.1007 68.5919 36.1007 71.0556C36.1007 75.6616 39.7855 77.4393 41.7612 77.4393C44.6561 77.4393 47.0258 74.3464 47.0258 69.9364C47.0258 67.898 46.6044 66.5417 46.2947 65.8224C46.1438 65.4715 45.8537 65.448 45.6459 65.7675C44.9501 66.8337 44.7228 67.6334 44.7228 67.6334C44.8149 67.604 44.4464 65.5166 43.5879 64.1662C42.7432 62.8373 41.7651 61.9572 41.2732 61.5515Z" fill="#ED152F"/>
</g>
<defs>
<filter id="filter0_d_111_90" x="-26" y="0" width="136" height="136" filterUnits="userSpaceOnUse" color-interpolation-filters="sRGB">
<feFlood flood-opacity="0" result="BackgroundImageFix"/>
<feColorMatrix in="SourceAlpha" type="matrix" values="0 0 0 0 0 0 0 0 0 0 0 0 0 0 0 0 0 0 127 0" result="hardAlpha"/>
<feMorphology radius="42" operator="dilate" in="SourceAlpha" result="effect1_dropShadow_111_90"/>
<feOffset dy="2"/>
<feGaussianBlur stdDeviation="2"/>
<feComposite in2="hardAlpha" operator="out"/>
<feColorMatrix type="matrix" values="0 0 0 0 0.11342 0 0 0 0 0.272755 0 0 0 0 0.579167 0 0 0 0.3 0"/>
<feBlend mode="normal" in2="BackgroundImageFix" result="effect1_dropShadow_111_90"/>
<feBlend mode="normal" in="SourceGraphic" in2="effect1_dropShadow_111_90" result="shape"/>
</filter>
</defs>
</svg>
